<svg xmlns="http://www.w3.org/2000/svg" width="150" height="150" viewBox="0 0 150 150" fill="none">
  <g clip-path="url(#clip0_2002_2033)">
    <path d="M119.435 11.1454H50.6229V39.6812H134.132V25.8362C134.132 17.7349 127.539 11.1454 119.435 11.1454Z" fill="#DFEEFC"/>
    <path d="M80.4829 44.0723H0V17.5941C0 7.89185 7.89528 0 17.601 0H43.3342C45.892 0 48.3559 0.539017 50.5943 1.55182C53.7209 2.96059 56.4068 5.28259 58.2905 8.31642L80.4829 44.0723Z" fill="#0D80EA"/>
    <path d="M150 50.0004V135.291C150 143.402 143.397 150 135.282 150H14.7182C6.60324 150 -3.8147e-06 143.402 -3.8147e-06 135.291V35.2878H135.282C143.397 35.2878 150 41.8877 150 50.0004Z" fill="#1890FF"/>
    <path d="M150 50.0004V135.291C150 143.402 143.397 150 135.282 150H75V35.2878H135.282C143.397 35.2878 150 41.8877 150 50.0004Z" fill="#1890FF"/>
    <path d="M114.457 92.6422C114.457 114.401 96.7564 132.103 75 132.103C53.2436 132.103 35.5431 114.401 35.5431 92.6422C35.5431 70.887 53.2436 53.1853 75 53.1853C96.7564 53.1853 114.457 70.887 114.457 92.6422Z" fill="#DFEEFC"/>
    <path d="M114.457 92.6422C114.457 114.401 96.7564 132.103 75 132.103V53.1853C96.7564 53.1853 114.457 70.887 114.457 92.6422Z" fill="#DFEEFC"/>
    <path d="M87.7178 93.1263C86.895 93.8232 85.8868 94.1631 84.8877 94.1631C83.6369 94.1631 82.394 93.6333 81.5243 92.601L79.3945 90.0764V106.605C79.3945 109.031 77.4261 111 75 111C72.5739 111 70.6055 109.031 70.6055 106.605V90.0764L68.4757 92.601C66.9079 94.4561 64.1373 94.693 62.2822 93.1263C60.4282 91.5619 60.1902 88.7901 61.7546 86.935L70.4533 76.6228C71.5874 75.2815 73.2422 74.5102 75 74.5102C76.7578 74.5102 78.4126 75.2815 79.5467 76.6228L88.2454 86.935C89.8098 88.7901 89.5718 91.5619 87.7178 93.1263Z" fill="#7FC1FE"/>
    <path d="M87.7178 93.1263C86.895 93.8232 85.8868 94.1631 84.8877 94.1631C83.6369 94.1631 82.394 93.6333 81.5243 92.601L79.3945 90.0764V106.605C79.3945 109.031 77.4261 111 75 111V74.5102C76.7578 74.5102 78.4126 75.2815 79.5467 76.6228L88.2454 86.935C89.8098 88.7901 89.5718 91.5619 87.7178 93.1263Z" fill="#1188F6"/>
  </g>
  <defs>
    <clipPath id="clip0_2002_2033">
      <rect width="150" height="150" fill="white"/>
    </clipPath>
  </defs>
</svg>