<?xml version="1.0" standalone="no"?>
<!DOCTYPE svg PUBLIC "-//W3C//DTD SVG 20010904//EN"
 "http://www.w3.org/TR/2001/REC-SVG-20010904/DTD/svg10.dtd">
<svg version="1.0" xmlns="http://www.w3.org/2000/svg"
 width="575.000000pt" height="482.000000pt" viewBox="0 0 575.000000 482.000000"
 preserveAspectRatio="xMidYMid meet">

<g transform="translate(0.000000,482.000000) scale(0.100000,-0.100000)"
fill="#000000" stroke="none">
<path d="M2390 4604 c-829 -76 -1521 -545 -1875 -1269 -353 -723 -298 -1594
142 -2260 368 -556 924 -909 1593 -1011 141 -22 460 -25 600 -5 405 56 763
201 1082 438 l87 65 -30 51 c-17 29 -35 62 -41 74 -6 13 -14 23 -18 23 -4 0
-42 -29 -85 -65 -271 -225 -598 -370 -946 -420 -132 -19 -421 -19 -559 -1
-313 43 -601 141 -840 286 -111 68 -248 172 -337 257 -66 61 -73 72 -73 106 0
51 35 87 85 87 30 0 47 -10 108 -68 393 -364 948 -565 1442 -523 374 32 716
164 1012 389 115 88 112 75 57 184 -44 87 -164 302 -241 431 l-35 57 -66 -61
c-237 -215 -554 -341 -867 -342 -258 -2 -462 61 -695 213 -233 153 -385 317
-498 537 -91 178 -126 330 -125 543 4 586 416 1125 969 1265 125 32 281 48
389 40 419 -30 795 -239 1004 -555 82 -125 215 -392 275 -555 44 -115 97 -240
184 -429 40 -87 101 -107 160 -53 38 35 30 82 -27 159 -29 40 -64 108 -86 165
-133 343 -297 694 -391 835 -186 280 -528 496 -918 580 -134 29 -379 31 -506
5 -609 -128 -1088 -610 -1207 -1214 -25 -131 -23 -367 5 -500 66 -305 221
-577 457 -800 119 -114 135 -145 95 -188 -52 -55 -107 -28 -250 121 -246 257
-411 561 -467 864 -26 140 -23 392 5 526 139 652 669 1181 1332 1329 45 10
142 19 245 22 202 6 349 -14 524 -73 444 -148 739 -412 966 -863 44 -89 125
-308 125 -342 0 -14 10 -16 69 -11 50 3 81 0 109 -11 59 -24 503 -139 510
-133 9 9 -17 192 -44 316 -77 343 -249 697 -469 959 -85 103 -283 293 -378
365 -310 232 -668 382 -1052 441 -98 15 -416 27 -505 19z"/>
<path d="M4163 2545 c-24 -15 -43 -29 -43 -33 0 -3 12 -37 27 -74 l26 -68 41
0 c133 -1 256 -136 256 -280 -1 -148 -109 -266 -256 -278 -173 -14 -316 129
-302 302 2 29 14 73 26 98 l22 45 -30 67 -30 68 -37 -23 c-21 -12 -60 -37 -88
-54 l-50 -32 -79 -323 c-67 -279 -78 -331 -74 -389 l4 -66 395 -687 c217 -378
397 -687 401 -688 3 0 311 180 685 399 512 302 678 404 677 418 -1 21 -786
1399 -813 1426 -14 14 -440 132 -691 191 -17 4 -39 -2 -67 -19z"/>
</g>
</svg>
